<mxfile host="65bd71144e">
    <diagram id="page1" name="Page-1">
        <mxGraphModel dx="842" dy="670" grid="1" gridSize="10" guides="1" tooltips="1" connect="1" arrows="1" fold="1" page="1" pageScale="1" pageWidth="850" pageHeight="1100" math="0" shadow="0">
            <root>
                <mxCell id="0"/>
                <mxCell id="1" parent="0"/>
                <mxCell id="15" value="" style="rounded=1;whiteSpace=wrap;html=1;" vertex="1" parent="1">
                    <mxGeometry x="30" y="20" width="770" height="350" as="geometry"/>
                </mxCell>
                <mxCell id="2" value="User&lt;br&gt;Uploads PDF&lt;br&gt;to unprocessed-pdf" style="rounded=1;whiteSpace=wrap;html=1;fillColor=#f5f5f5;strokeColor=#666666;" parent="1" vertex="1">
                    <mxGeometry x="50" y="200" width="120" height="80" as="geometry"/>
                </mxCell>
                <mxCell id="3" value="Azure Storage&lt;br&gt;Account with private endpoint&lt;div&gt;&lt;font color=&quot;#000000&quot;&gt;&lt;br&gt;&lt;/font&gt;unprocessed-pdf&lt;/div&gt;&lt;div&gt;&lt;br&gt;processed-pdf&lt;/div&gt;" style="rounded=1;whiteSpace=wrap;html=1;fillColor=#dae8fc;strokeColor=#6c8ebf;" parent="1" vertex="1">
                    <mxGeometry x="250" y="190" width="150" height="110" as="geometry"/>
                </mxCell>
                <mxCell id="4" value="Azure Event Grid&lt;br&gt;(System Topic)" style="rounded=1;whiteSpace=wrap;html=1;fillColor=#d5e8d4;strokeColor=#82b366;" parent="1" vertex="1">
                    <mxGeometry x="420" y="40" width="150" height="80" as="geometry"/>
                </mxCell>
                <mxCell id="5" value="Function app with outbound VNet integration&lt;div&gt;&lt;font color=&quot;#000000&quot;&gt;&lt;br&gt;&lt;/font&gt;- ProcessBlobUpload&lt;br&gt;(Copy Blob)&lt;/div&gt;" style="rounded=1;whiteSpace=wrap;html=1;fillColor=#ffe6cc;strokeColor=#d79b00;" parent="1" vertex="1">
                    <mxGeometry x="610" y="190" width="150" height="110" as="geometry"/>
                </mxCell>
                <mxCell id="6" value="" style="rounded=1;whiteSpace=wrap;html=1;dashed=1;dashPattern=3 3;fillColor=none;strokeColor=#000000;strokeWidth=2;" parent="1" vertex="1">
                    <mxGeometry x="230" y="175" width="550" height="140" as="geometry"/>
                </mxCell>
                <mxCell id="8" value="(Blob created)" style="endArrow=classic;html=1;entryX=0;entryY=0.5;exitX=1;exitY=0.25;" parent="1" source="3" target="4" edge="1">
                    <mxGeometry relative="1" as="geometry"/>
                </mxCell>
                <mxCell id="9" value="Triggers blob created event&lt;br&gt;subscription with blob info" style="endArrow=classic;html=1;entryX=0;entryY=0.25;exitX=1;exitY=0.75;curved=1;" parent="1" source="4" target="5" edge="1">
                    <mxGeometry x="-0.1814" y="4" relative="1" as="geometry">
                        <mxPoint as="offset"/>
                    </mxGeometry>
                </mxCell>
                <mxCell id="10" value="Back to processed-pdf&lt;div&gt;via VNet integration&lt;/div&gt;" style="endArrow=classic;html=1;entryX=0.8;entryY=0.909;exitX=0;exitY=0.5;curved=1;entryDx=0;entryDy=0;entryPerimeter=0;" parent="1" target="3" edge="1">
                    <mxGeometry relative="1" as="geometry">
                        <mxPoint x="610" y="267" as="sourcePoint"/>
                        <mxPoint x="400" y="267" as="targetPoint"/>
                    </mxGeometry>
                </mxCell>
                <mxCell id="12" value="&lt;span style=&quot;color: rgb(0, 0, 0); font-family: Helvetica; font-size: 12px; font-style: normal; font-variant-ligatures: normal; font-variant-caps: normal; font-weight: 400; letter-spacing: normal; orphans: 2; text-align: center; text-indent: 0px; text-transform: none; widows: 2; word-spacing: 0px; -webkit-text-stroke-width: 0px; white-space: normal; background-color: rgb(251, 251, 251); text-decoration-thickness: initial; text-decoration-style: initial; text-decoration-color: initial; float: none; display: inline !important;&quot;&gt;VNet&lt;/span&gt;" style="text;whiteSpace=wrap;html=1;" vertex="1" parent="1">
                    <mxGeometry x="480" y="315" width="30" height="30" as="geometry"/>
                </mxCell>
                <mxCell id="13" value="Gets file from unprocessed-pdf&lt;div&gt;via VNet integration&lt;/div&gt;" style="endArrow=classic;html=1;entryX=0.691;entryY=0.357;curved=1;entryDx=0;entryDy=0;entryPerimeter=0;" edge="1" parent="1">
                    <mxGeometry relative="1" as="geometry">
                        <mxPoint x="380" y="260" as="sourcePoint"/>
                        <mxPoint x="610.05" y="232.98000000000002" as="targetPoint"/>
                    </mxGeometry>
                </mxCell>
                <mxCell id="14" style="edgeStyle=none;html=1;exitX=1;exitY=0.5;exitDx=0;exitDy=0;entryX=0.133;entryY=0.636;entryDx=0;entryDy=0;entryPerimeter=0;" edge="1" parent="1" source="2" target="3">
                    <mxGeometry relative="1" as="geometry"/>
                </mxCell>
            </root>
        </mxGraphModel>
    </diagram>
</mxfile>